<?xml version="1.0" encoding="UTF-8"?>
<svg id="Layer_1" data-name="Layer 1" xmlns="http://www.w3.org/2000/svg" viewBox="0 0 4825.13 2008.96">
  <defs>
    <style>
      .cls-1, .cls-2, .cls-3 {
        stroke-width: 0px;
      }

      .cls-2 {
        fill: #666;
      }

      .cls-3 {
        fill: red;
      }
    </style>
  </defs>
  <path class="cls-2" d="M776.1,1791.65c-4.43,8.87-13.3,22.18-35.48,44.35-22.17,26.61-35.48,39.91-44.35,39.91-4.43,0-8.87-4.43-8.87-13.3,0-22.18,8.87-39.91,22.17-62.09,13.3-26.61,31.04-39.91,48.78-39.91,8.87,0,13.3,4.43,22.17,8.87l-4.43,22.17ZM820.45,1716.26h-53.22c-35.48,0-66.52,17.74-102,57.65-31.04,35.48-48.78,70.96-53.22,106.44,0,13.3,0,26.61,8.87,39.91,8.87,13.31,17.74,17.74,31.04,17.74,17.74,0,39.91-13.3,62.09-31.04,17.74-17.74,31.04-39.92,44.35-62.09h4.43l-31.04,88.7h70.96l62.09-217.31c-8.87,0-22.17,4.44-44.35,0ZM1281.68,1791.65c-4.44,8.87-13.31,22.18-35.48,48.78-22.18,22.18-35.48,35.48-44.35,35.48-4.44,0-4.44-4.43-4.44-13.3,0-17.74,8.87-39.91,22.18-62.09,13.3-26.61,31.04-35.48,44.35-35.48,8.87,0,13.3,0,22.17,4.44l-4.43,22.17ZM1321.59,1716.26h-48.78c-35.48,0-66.53,17.74-102.01,53.22-31.04,35.48-48.78,66.52-53.21,106.43,0,13.31,0,26.61,8.87,39.92,8.86,8.87,17.73,17.74,35.47,17.74,35.48,0,66.53-31.05,97.57-88.7h8.87c-4.43,17.74-8.87,31.04-13.3,48.78-8.87,22.18-13.31,39.92-22.18,53.22-13.3,17.74-26.61,22.17-39.91,22.17-26.61,0-53.22-8.87-88.7-26.61l4.44,62.09c17.74,4.44,39.91,4.44,66.52,4.44,75.39,0,124.17-31.05,141.91-93.13l57.66-199.57c-13.31,0-31.05,4.44-53.22,0ZM1459.07,1818.26c4.43-13.3,8.87-22.17,17.74-35.48,8.87-13.3,22.17-17.74,31.04-17.74s13.31,4.44,13.31,17.74c-4.44,22.18-26.61,35.48-62.09,35.48ZM1481.24,1893.65c-22.17,0-35.47-8.87-35.47-31.04,31.04,0,57.65-8.87,84.26-26.61,31.04-17.74,48.78-44.35,53.22-70.96,0-13.3-4.44-26.61-13.31-35.47-8.87-8.87-22.17-13.31-35.48-13.31-39.91,0-75.39,13.31-106.43,44.35-31.05,31.04-48.79,66.52-53.22,106.43,0,22.18,4.43,39.92,22.17,53.22,13.31,13.31,35.48,17.74,57.65,17.74,31.05,0,66.53-8.87,110.88-22.17l13.3-53.22c-39.91,22.17-70.96,31.04-97.57,31.04ZM1804.99,1725.13l-13.31,44.35c-17.74-4.44-31.04-8.87-44.34-8.87-17.74,0-31.05,4.43-31.05,17.74,0,4.43,4.44,13.3,13.31,22.17,17.74,13.31,26.61,22.18,26.61,26.61,8.87,13.3,13.3,26.61,13.3,39.91-4.43,26.61-13.3,44.35-35.48,53.22-17.74,8.87-39.91,13.31-66.52,13.31-22.18,0-44.35-4.44-75.39-13.31l13.3-48.78c26.61,13.3,48.78,17.74,62.09,17.74,4.43,0,13.3,0,17.74-4.44s8.87-8.87,8.87-13.3c0-8.87-4.44-17.74-13.31-26.61l-26.61-26.61c-8.87-13.3-13.3-26.61-13.3-35.48,4.43-22.17,13.3-39.91,35.48-53.21,17.74-8.87,39.91-13.31,62.09-13.31,13.3,0,31.04,4.44,66.52,8.87ZM2173.08,1636.43l-13.3,44.35c-17.74-8.87-31.05-13.3-44.35-13.3s-22.18,4.43-31.04,17.74c-4.44,4.43-8.87,17.74-13.31,35.48h53.22l-13.31,39.91h-53.21l-62.09,221.74h-75.39l75.39-257.22c8.87-26.61,26.61-53.22,48.78-66.52,22.18-17.74,48.78-26.61,75.39-26.61,22.18-4.43,35.48,0,53.22,4.43ZM2261.78,1858.17c-13.3,22.18-31.04,35.48-48.78,35.48-8.87,0-17.74-4.43-22.18-13.3-4.43-8.87-4.43-17.74-4.43-26.61,0-22.17,8.87-39.91,17.74-57.65,13.3-22.18,26.61-35.48,48.78-35.48,8.87,0,17.74,4.43,22.17,13.3,4.44,8.87,4.44,17.74,4.44,26.61-4.44,22.18-8.87,39.91-17.74,57.65ZM2332.74,1734c-13.31-13.3-35.48-17.74-57.66-17.74-39.91,0-75.39,13.31-106.43,44.35-31.05,31.04-48.79,66.52-53.22,106.43,0,22.18,4.43,39.92,22.17,53.22,13.31,13.31,35.48,17.74,57.66,17.74,39.91,0,75.39-13.3,106.43-44.35,31.05-31.04,48.79-66.52,53.22-106.43,0-22.18-8.87-39.92-22.17-53.22ZM2585.52,1720.7l-22.17,66.52c-4.43-4.44-17.74-4.44-22.17-4.44-13.31,0-31.05,8.87-53.22,35.48-22.18,22.17-35.48,39.91-39.92,53.22l-17.74,66.52h-70.95l62.08-212.87h70.96l-31.04,93.13h4.43c13.31-22.17,26.61-44.35,44.35-62.09,22.18-22.17,44.35-35.47,62.09-35.47,4.43-4.44,8.87-4.44,13.3,0ZM2869.36,1725.13l-13.31,39.91h-35.48c-4.43,17.74-13.3,35.48-17.74,53.22-4.43,22.17-8.87,39.91-13.3,53.22,0,13.3,4.43,22.17,13.3,22.17,4.44,0,13.31-4.43,22.18-8.87l-13.31,44.35c-22.17,4.44-39.91,8.87-53.22,8.87s-26.6-4.43-35.47-8.87c-8.87-8.87-13.31-17.74-13.31-35.48s8.87-39.91,13.31-66.52c8.87-22.17,44.34-137.48,44.34-137.48l75.4-8.87-13.31,44.35h39.92ZM3210.84,1818.26c4.44-13.3,8.87-22.17,17.74-35.48,8.87-13.3,22.17-17.74,31.04-17.74s13.31,4.44,13.31,17.74c-4.44,22.18-22.18,35.48-62.09,35.48ZM3237.45,1893.65c-22.17,0-35.48-8.87-35.48-31.04,31.04,0,57.65-8.87,84.26-26.61,31.05-17.74,48.79-44.35,53.22-70.96,0-13.3-4.43-26.61-13.3-35.47-8.87-8.87-22.18-13.31-35.48-13.31-39.92,0-75.39,13.31-106.44,44.35-31.04,31.04-48.78,66.52-53.22,106.43,0,22.18,4.44,39.92,22.18,53.22,13.3,13.31,35.48,17.74,57.65,17.74,31.04,0,66.52-8.87,110.87-22.17l13.31-53.22c-39.92,22.17-70.96,31.04-97.57,31.04ZM3915.98,1818.26c4.44-13.3,8.87-22.17,17.74-35.48,8.87-13.3,22.18-17.74,31.05-17.74s13.3,4.44,13.3,17.74c-4.43,22.18-22.17,35.48-62.09,35.48ZM3942.59,1893.65c-22.17,0-35.48-8.87-35.48-31.04,31.05,0,57.66-8.87,84.27-26.61,31.04-17.74,48.78-44.35,53.21-70.96,0-13.3-4.43-26.61-13.3-35.47-8.87-8.87-22.17-13.31-35.48-13.31-39.91,0-75.39,13.31-106.44,44.35-31.04,31.04-48.78,66.52-53.21,106.43,0,22.18,4.43,39.92,22.17,53.22,13.3,13.31,35.48,17.74,57.65,17.74,31.05,0,66.53-8.87,110.87-22.17l8.87-53.22c-35.47,22.17-70.95,31.04-93.13,31.04ZM4226.42,1720.7l-13.3,39.91h-35.48c-4.43,17.74-13.3,39.91-17.74,57.65-4.43,22.17-8.87,39.91-13.3,53.22,0,13.3,4.43,22.17,13.3,22.17,4.44,0,13.31-4.43,22.18-8.87l-13.31,44.35c-22.17,4.44-39.91,8.87-53.22,8.87s-26.61-4.43-35.48-8.87c-8.87-8.87-13.3-17.74-13.3-35.48s8.87-39.91,13.3-66.52c8.87-22.17,44.35-137.48,44.35-137.48l75.39-8.87-13.3,39.92h39.91ZM4381.64,1720.7l-13.3,39.91h-35.48c-4.43,17.74-13.3,39.91-17.74,57.65-4.43,22.17-8.87,39.91-13.3,53.22,0,13.3,4.43,22.17,13.3,22.17,4.44,0,13.31-4.43,22.18-8.87l-13.31,44.35c-22.17,4.44-39.91,8.87-53.22,8.87s-26.61-4.43-35.48-8.87c-8.87-8.87-13.3-17.74-13.3-35.48s4.43-39.91,13.3-66.52c4.44-22.17,44.35-137.48,44.35-137.48l75.39-8.87-8.87,39.92h35.48ZM4457.04,1818.26c4.43-13.3,8.87-22.17,17.74-35.48,8.87-13.3,22.17-17.74,31.04-17.74s13.3,4.44,13.3,17.74c0,22.18-22.17,35.48-62.08,35.48ZM4483.65,1893.65c-26.61,0-35.48-8.87-35.48-31.04,31.04,0,57.65-8.87,84.26-26.61,31.04-17.74,48.78-44.35,53.22-70.96,0-13.3-4.44-26.61-13.31-35.47-8.87-8.87-22.17-13.31-35.48-13.31-39.91,0-75.39,13.31-106.43,44.35-31.05,31.04-48.79,66.52-53.22,106.43-4.44,22.18,4.43,39.92,22.17,53.22,13.31,13.31,35.48,17.74,57.66,17.74,31.04,0,66.52-8.87,110.87-22.17l13.3-53.22c-39.91,22.17-70.96,31.04-97.56,31.04ZM4.43,1818.26c-8.87,84.26,44.35,133.04,141.92,133.04,53.22,0,106.44-8.87,155.22-17.73,0-4.44,13.3-39.92,17.74-53.22-4.43,0-8.87,4.43-8.87,4.43-39.91,8.87-84.26,22.18-119.74,22.18-57.65,0-93.13-39.92-88.7-97.57,8.87-88.69,79.83-181.82,168.53-181.82,35.48,0,70.96,8.86,106.44,22.17,8.87-8.87,17.74-48.78,22.17-57.65-35.48-8.87-75.39-13.31-110.87-13.31-172.96,0-274.96,137.48-283.83,239.48ZM3632.15,1782.78c39.92,0,84.26,8.87,79.83,57.65-4.44,44.35-44.35,57.66-79.83,57.66-13.3,0-22.17,0-35.48-4.44l35.48-110.87ZM3680.94,1632c8.87-4.43,17.73-4.43,26.6-4.43,22.18,0,48.79,4.43,48.79,31.04-4.44,48.78-53.22,70.96-70.96,70.96h-26.61l22.18-97.57ZM3499.11,1938h172.96c39.91,0,124.17-26.61,128.61-102,4.43-44.35-35.48-70.96-75.4-84.26,48.79-13.31,106.44-48.78,110.88-102,4.43-70.96-70.96-66.52-124.18-66.52h-110.87l-102,354.78ZM4825.13,1725.13l-26.61,66.52c-4.43-4.43-17.74-4.43-22.17-4.43-13.31,0-31.05,8.87-53.22,35.48-22.18,22.17-35.48,39.91-39.92,53.21l-17.74,66.52h-70.95l62.09-212.86h70.95l-31.04,93.13h4.43c13.31-22.18,26.61-44.35,44.35-62.09,22.18-22.18,44.35-35.48,62.09-35.48,8.87-8.87,13.31-4.43,17.74,0ZM1059.93,1933.57h-70.96s35.48-119.74,39.92-141.92c0,0,0-8.87-4.44-4.43-4.43,0-22.17,17.74-39.91,39.91-17.74,22.17-31.04,35.48-31.04,44.35l-22.17,62.09h-70.96l62.09-217.31h70.96l-31.04,93.13h4.43c13.3-22.17,26.61-44.35,44.35-62.09,22.17-22.17,44.35-35.47,62.09-35.47,13.3,0,22.17,4.43,26.61,13.3,4.43,4.44,13.3,17.74,4.43,44.35l-44.35,164.09ZM478.96,1933.57s35.48-119.74,39.91-141.92c0,0,4.43-8.87-4.44-4.43-4.43,4.43-22.17,17.74-39.91,39.91-17.74,22.17-31.04,35.48-31.04,44.35l-17.74,66.52h-70.96l88.7-301.57h70.96c-17.74,57.66-35.48,119.74-57.65,177.4h4.44c13.3-22.18,26.61-44.35,44.35-62.09,22.18-22.17,44.35-35.48,62.09-35.48,13.3,0,22.17,4.44,26.61,13.31,4.43,4.43,13.3,17.73,4.43,44.34l-44.35,159.66h-75.39ZM2993.53,1933.57s35.48-119.74,39.92-141.92c0,0,4.43-8.87-4.44-4.43-4.43,4.43-22.17,17.74-39.91,39.91s-31.05,35.48-31.05,44.35l-17.74,66.52h-70.95l88.69-301.57h70.96c-17.74,57.66-35.48,119.74-57.65,177.4,13.3-22.18,26.61-44.35,44.35-62.09,22.17-22.17,44.34-35.48,62.08-35.48,13.31,0,22.18,4.44,26.61,13.31,4.44,4.43,13.31,17.73,4.44,44.34l-44.35,159.66h-70.96Z"/>
  <path class="cls-3" d="M536.62,1396.96H0l270.53-465.66h536.62l-270.53,465.66ZM1077.67,1396.96h536.62l-270.53-465.66h-536.61l270.53,465.66ZM1077.67,465.65L807.15,0l-270.53,465.65,270.53,465.65,270.53-465.65Z"/>
  <path class="cls-1" d="M1853.77,1197.39h217.31v-75.39h-217.31v-97.57h243.92v-79.82h-332.61v452.35h337.04v-79.83h-248.35v-119.74ZM1849.34,536.61l93.13,337.04h88.7l97.56-337.04v337.04h84.27v-452.35h-128.61l-97.57,314.87-93.13-314.87h-128.61v452.35h84.26v-337.04ZM3831.72,421.3h88.7v452.35h-88.7v-452.35ZM3907.11,944.61h88.7v452.35h-88.7v-452.35ZM4727.56,421.3h88.7v452.35h-88.7v-452.35ZM2248.48,421.3h88.69v452.35h-88.69v-452.35ZM4603.39,598.7h-181.83v-177.39h-88.7v452.35h88.7v-199.57h181.83v199.57h88.69v-452.35h-88.69v177.39ZM2474.65,873.65h93.14v-372.52h106.43v-79.83h-310.44v79.83h110.87v372.52ZM3299.54,1396.96h93.13v-372.53h110.87v-79.82h-310.44v79.82h106.44v372.53ZM3237.45,882.52c115.31,0,181.83-53.22,181.83-155.22v-310.43h-88.7v319.3c0,39.91-31.04,70.96-88.7,70.96-66.52,0-88.69-39.91-88.69-70.96v-314.87h-88.7v310.44c-4.43,106.43,66.52,150.78,172.96,150.78ZM2554.48,1197.39h212.87v-75.39h-212.87v-97.57h239.48v-79.82h-332.61v452.35h341.48v-79.83h-248.35v-119.74ZM3543.46,873.65h128.61c84.26,0,137.48-48.78,137.48-119.74,0-57.65-39.92-106.43-88.7-119.74,39.91-8.87,70.96-48.78,70.96-102,0-66.52-48.79-110.87-141.92-110.87h-204v452.35h97.57ZM3649.89,802.7h-106.43v-128.61h106.43c39.92,0,70.96,22.17,70.96,66.52-4.44,35.48-35.48,62.09-70.96,62.09ZM3654.33,492.26c26.61,0,53.21,22.17,53.21,53.22,0,26.61-17.73,57.65-57.65,57.65h-106.43v-110.87h110.87ZM3796.24,1179.65c39.92-13.3,79.83-44.35,79.83-110.87,0-79.82-53.22-124.17-146.35-124.17h-204v452.35h93.13v-177.39h75.39c48.78,0,70.96,22.17,79.83,57.65,8.87,35.48,4.43,88.69,13.3,119.74h93.13c-8.87-35.48-13.3-79.83-17.73-119.74,0-62.09-31.05-84.26-66.53-97.57ZM3618.85,1148.61v-124.18h106.43c35.48,0,62.09,26.61,62.09,62.09,0,26.61-22.17,62.09-57.65,62.09h-110.87ZM2221.87,944.61h-88.7v452.35h301.57v-79.83h-212.87v-372.52ZM2829.44,682.96c75.39,13.3,115.31,26.61,115.31,70.96,0,31.04-31.05,57.65-88.7,57.65s-93.13-35.48-93.13-75.39h-88.7c0,79.83,48.79,150.78,181.83,150.78,124.18,0,181.83-66.52,181.83-141.91,0-70.96-44.35-115.3-128.61-133.04-79.83-17.74-133.05-17.74-133.05-70.96,0-35.48,31.05-53.22,79.83-53.22,53.22,0,79.83,26.61,79.83,70.96h88.7c0-70.96-53.22-146.35-172.96-146.35-84.27,0-168.53,48.78-168.53,137.48,0,70.96,53.22,115.3,146.35,133.04ZM4097.81,682.96c70.96,13.3,115.31,26.61,115.31,70.96,0,31.04-31.04,57.65-88.7,57.65-62.09,0-93.13-35.48-93.13-75.39h-88.7c0,79.83,48.79,150.78,181.83,150.78,124.18,0,181.83-66.52,181.83-141.91,0-70.96-44.35-115.3-128.61-133.04-79.83-17.74-133.05-17.74-133.05-70.96,0-35.48,31.05-53.22,79.83-53.22,53.22,0,79.83,26.61,79.83,70.96h88.7c0-70.96-53.22-146.35-172.96-146.35-84.27,0-168.53,48.78-168.53,137.48,0,70.96,57.66,115.3,146.35,133.04Z"/>
  <path class="cls-1" d="M3006.84,1326c-75.4,0-115.31-70.96-115.31-159.65s39.91-159.65,115.31-159.65c57.65,0,84.26,35.47,97.56,75.39h93.14c-13.31-88.7-84.27-155.22-195.14-155.22-137.48,0-208.44,106.43-208.44,235.04s70.96,235.05,208.44,235.05c106.44,0,181.83-62.09,195.14-159.66h-93.14c-13.3,57.66-39.91,88.7-97.56,88.7ZM4226.42,1326c-75.39,0-115.3-70.96-115.3-159.65s39.91-159.65,115.3-159.65c57.66,0,84.27,35.47,97.57,75.39h93.13c-13.3-88.7-84.26-155.22-195.13-155.22-137.48,0-208.44,106.43-208.44,235.04s70.96,235.05,208.44,235.05c106.44,0,181.83-62.09,195.13-159.66h-93.13c-13.3,57.66-39.91,88.7-97.57,88.7Z"/>
</svg>